<svg xmlns="http://www.w3.org/2000/svg" version="1.1" xmlns:xlink="http://www.w3.org/1999/xlink" xmlns:svgjs="http://svgjs.dev/svgjs" width="100%" height="100%" viewBox="0 0 1000 600"><rect width="1000" height="600" x="0" y="0" fill="#ffe8f5"/><g><circle r="166.66666666666666" cx="342.467783610026" cy="364.68991724845137" fill="#8000ff" transform="matrix(0.711031280172408,0,0,0.7110312801724079,0,40.69409481232043)"/><path d="M325.67013896126474 405.4145027766466L290.07999138430375 347.9715512097554L314.24502152254604 326.75347596642075L307.7163829861354 320.54220180330776L275.073190304082 350.73715503420715L275.073190304082 291.16332838945976L265.75627905941263 291.16332838945976L265.75627905941263 405.4145027766466L275.073190304082 405.4145027766466L275.073190304082 360.8474772121209L283.5513528478931 353.6841099291147L314.72106808249265 405.4145027766466L325.67013896126474 405.4145027766466ZM346.3894987608458 415.70617602501613L346.3894987608458 415.70617602501613L346.3894987608458 323.6478388848643L326.64490096496496 323.6478388848643L326.64490096496496 332.1260014286754L337.2539385866323 332.1260014286754L337.2539385866323 415.52482495456024Q337.2539385866323 419.4465418531681 336.0978255124762 422.80153665660134Q334.96438132212717 426.13386257622767 332.60681740620106 428.67277756260955Q330.226584606468 431.21169254899155 326.3048677078602 432.6625011126383L326.3048677078602 432.6625011126383L328.93445822947007 439.68985509280253Q335.123063508776 437.5589800149463 338.9541048721559 434.54401846861776Q342.8078151193427 431.5290569222892 344.59865694009426 426.949942393279Q346.3894987608458 422.3934967480757 346.3894987608458 415.70617602501613ZM347.70429402165075 295.0850452880676L347.70429402165075 295.0850452880676Q347.70429402165075 292.7954880235625 346.0721343875481 291.2540039246877Q344.43997475344537 289.68985094200593 342.15041748894026 289.68985094200593L342.15041748894026 289.68985094200593Q339.86086022443516 289.68985094200593 338.13802505510455 291.2540039246877Q336.43785876958094 292.7954880235625 336.43785876958094 295.0850452880676L336.43785876958094 295.0850452880676Q336.43785876958094 297.1932514821168 338.13802505510455 298.82541111621947Q339.86086022443516 300.4575707503222 342.15041748894026 300.4575707503222L342.15041748894026 300.4575707503222Q344.43997475344537 300.4575707503222 346.0721343875481 298.82541111621947Q347.70429402165075 297.1932514821168 347.70429402165075 295.0850452880676ZM408.7289292300449 333.75816106277796L408.7289292300449 333.75816106277796L412.4919639420039 327.5695557834721Q408.5702470433961 325.1213163323181 404.82988121524414 323.8971966067411Q401.06684650328515 322.6730768811641 397.643845048431 322.2650369726384Q394.2208435935768 321.85699706411276 390.95652432537145 321.85699706411276L390.95652432537145 321.85699706411276Q386.06004542306346 321.85699706411276 381.3222487074043 323.14912344111065Q376.5844519917452 324.46391870191565 372.7534106283653 327.1615158749464Q368.92236926498543 329.8364441641702 366.6328120004803 333.69015441135707Q364.34325473597517 337.52119577473695 364.34325473597517 342.7350390503427L364.34325473597517 342.7350390503427Q364.34325473597517 348.13023339640426 366.8821697223571 351.96127475978415Q369.39841582493204 355.792316123164 373.4788149101887 358.5805888314228Q377.55921399544536 361.34619265587446 382.5463684329813 363.4770677337308Q387.51085398671023 365.58527392778 392.49800842424617 367.55746681898745Q397.48516286178216 369.5069908263878 401.5655619470388 371.8645547423139Q405.6459610322955 374.244787542047 408.16220713487036 377.41843127502443Q410.70112212125235 380.61474389180876 410.70112212125235 385.0125073503632L410.70112212125235 385.0125073503632Q410.70112212125235 388.93422424897096 408.81960476527286 391.69982807342274Q406.9380874092934 394.4881007816815 403.9231258629648 396.34694925385395Q400.9081643166364 398.2284666098334 397.48516286178216 399.0445464268847Q394.03949252312094 399.86062624393605 390.95652432537145 399.86062624393605L390.95652432537145 399.86062624393605Q385.8786943526076 399.86062624393605 381.39025535882524 398.63650651835906Q376.9018163650429 397.41238679278206 373.0027683502421 394.96414734162806Q369.0810514516343 392.51590789047407 365.3180167396754 388.93422424897096L365.3180167396754 388.93422424897096L360.2628556507185 394.3067497112256Q365.97541437007783 400.8353882476363 374.13621254059115 404.59842295959515Q382.2970107111045 408.36145767155415 390.95652432537145 408.36145767155415L390.95652432537145 408.36145767155415Q396.17036760097716 408.36145767155415 401.15752203851315 406.8879802241004Q406.122007592242 405.4145027766466 410.20240667749874 402.46754788173894Q414.28280576275546 399.5432618706383 416.7310452139094 395.12282952827695Q419.1792846650634 390.7250660697225 419.1792846650634 384.8538251637143L419.1792846650634 384.8538251637143Q419.1792846650634 378.8012331872503 416.66303856248845 374.65282745057266Q414.12412357610657 370.4817528300881 410.04372449084985 367.55746681898745Q405.9633254055932 364.6105119240798 400.97617096805726 362.4116301948027Q396.01168541432827 360.21274846552546 391.1152065120203 358.3312311095459Q386.2187276097123 356.44971375356647 382.13832852445563 354.25083202428925Q378.057929439199 352.05195029501203 375.51901445281703 349.2636775867534Q373.0027683502421 346.4980737623016 373.0027683502421 342.41767467704494L373.0027683502421 342.41767467704494Q373.0027683502421 338.9946732221907 374.79361017099365 336.54643377103673Q376.5844519917452 334.09819431988274 379.53140688665275 332.53404133720096Q382.4556928977534 330.9925572383263 385.9693698878355 330.24448407269585Q389.4830468779176 329.5190797908725 392.74736614612294 329.5190797908725L392.74736614612294 329.5190797908725Q395.5129699705747 329.5190797908725 398.3692493302544 330.0177952346261Q401.22552868993404 330.49384179457263 403.9231258629648 331.40059714685196Q406.6207230359957 332.2846836153242 408.7289292300449 333.75816106277796Z " fill="#ffe8f5" transform="matrix(0.711031280172408,0,0,0.7110312801724079,0,40.69409481232043)"/><path d="M652.2551457248713 405.32852519535106L616.7401391390388 348.0068521453511L640.85414998012 326.8335743336701L634.3392952688336 320.6354139486267L601.7650217124011 350.76661698832663L601.7650217124011 291.3185677478375L592.467781134836 291.3185677478375L592.467781134836 405.32852519535106L601.7650217124011 405.32852519535106L601.7650217124011 360.8555933814995L610.2252844277523 353.70735001772687L641.3291914694847 405.32852519535106L652.2551457248713 405.32852519535106ZM664.4704983085336 323.7344941411484L664.4704983085336 405.32852519535106L673.7451178627956 405.32852519535106L673.7451178627956 323.7344941411484L664.4704983085336 323.7344941411484ZM669.1756711555738 289.6898540700158L669.1756711555738 289.6898540700158Q667.0719159883876 289.6898540700158 665.3527182173535 291.3185677478375Q663.6561414696228 292.94728142565907 663.6561414696228 295.23200477927L663.6561414696228 295.23200477927Q663.6561414696228 297.3357599464563 665.3527182173535 298.96447362427784Q667.0719159883876 300.5931873020995 669.1756711555738 300.5931873020995L669.1756711555738 300.5931873020995Q671.4603945091847 300.5931873020995 673.0891081870063 298.96447362427784Q674.7178218648279 297.3357599464563 674.7178218648279 295.23200477927L674.7178218648279 295.23200477927Q674.7178218648279 292.94728142565907 673.0891081870063 291.3185677478375Q671.4603945091847 289.6898540700158 669.1756711555738 289.6898540700158ZM737.581645624082 349.6355658231728L737.581645624082 349.6355658231728L737.581645624082 405.32852519535106L746.5395708521008 405.32852519535106L746.5395708521008 349.13790331050507Q746.5395708521008 343.93506795079713 745.3180355937346 339.7727996630307Q744.0965003353684 335.6105313752644 741.7439139118483 332.3531040196211Q739.3913274883282 329.0956766639779 735.9529319462603 326.8335743336701Q732.5371574274956 324.5488509800592 728.058194813486 323.39517879160223Q723.5792321994766 322.26412762644827 718.2180496766471 322.26412762644827L718.2180496766471 322.26412762644827Q714.146265482093 322.26412762644827 710.1423443574482 323.16896855857146Q706.1610442561065 324.0511884673915 702.4964384810078 325.61203907530387Q698.8318327059092 327.1502686599132 695.7327525133875 329.2766448504025L695.7327525133875 329.2766448504025L695.7327525133875 323.7344941411484L686.4581329591255 323.7344941411484L686.4581329591255 405.32852519535106L695.7327525133875 405.32852519535106L695.7327525133875 336.1081938879321Q699.1485270321523 334.1627858838674 702.4059543877955 332.9412506255012Q705.6633817434388 331.719715367135 709.1696403554158 331.0637056913457Q712.675898967393 330.40769601555644 716.4083678124008 330.40769601555644L716.4083678124008 330.40769601555644Q720.3218048438333 330.40769601555644 724.0768947121443 331.3804000175887Q727.8093635571522 332.3531040196211 730.9084437496739 334.56996430332276Q734.0075239421956 336.76420356372137 735.7945847831387 340.42880933882Q737.581645624082 344.0934151139187 737.581645624082 349.6355658231728ZM820.1710017036199 415.7568169380701L820.1710017036199 415.7568169380701L820.1710017036199 323.89284130426995L810.8737611260549 323.89284130426995L810.8737611260549 331.5387471807103Q807.2996394441685 328.6206351746132 803.4766865059484 326.58474307733616Q799.6537335677282 324.5488509800592 795.6498124430833 323.4856628848145Q791.6685123417416 322.42247478956983 787.755075310309 322.26412762644827L787.755075310309 322.26412762644827Q778.7971500822902 321.76646511378055 772.5989896972468 324.9560293995146Q766.4234503355065 328.1229726619455 763.1660229798632 334.2306489537766Q759.90859562422 340.33832524560773 759.90859562422 348.9795561473835L759.90859562422 348.9795561473835L759.90859562422 376.66768867035114Q759.90859562422 391.48445893386724 767.0794600112957 399.3791960666415Q774.2277033750684 407.27393319941575 787.9134224734306 407.27393319941575L787.9134224734306 407.27393319941575Q791.6685123417416 407.27393319941575 795.1747709537187 406.3917132905957Q798.6584085423927 405.4868723584726 801.7574887349144 403.85815868065094Q804.8565689274361 402.2294450028294 807.2091553509563 400.0352057424308Q809.5843627977795 397.8409664820322 810.8737611260549 395.39789596529977L810.8737611260549 395.39789596529977L810.8737611260549 415.5984697749485Q810.8737611260549 418.85589713059176 810.1498883803564 421.52517788035493Q809.4260156346579 424.21707965342125 808.1139962830794 426.34345584391053Q806.8019769315009 428.4472110110968 804.7660848342238 430.00806161900925Q802.7301927369468 431.5462912036186 799.9704278939713 432.69996339207546L799.9704278939713 432.69996339207546L802.5718455738253 439.68985959272663Q808.7700059588686 437.74445158866195 812.6834429903012 434.64537139614026Q816.5742589984305 431.5462912036186 818.3839408626768 426.90898142648757Q820.1710017036199 422.27167164935656 820.1710017036199 415.7568169380701ZM810.8737611260549 341.31102924764L810.8737611260549 341.31102924764L810.8737611260549 376.98438299659415Q810.8737611260549 382.2098393796052 809.177184378324 386.2816235741593Q807.4579866072901 390.3534077687133 804.3589064147684 393.1131726116888Q801.2824472455499 395.87293745466434 797.2106630509958 397.34330396936446Q793.1388788564417 398.8136704840646 788.4110849860983 398.8136704840646L788.4110849860983 398.8136704840646Q782.212924601055 398.8136704840646 777.8923091501671 396.5289471304536Q773.5943147225822 394.2442237768428 771.3095913689714 389.6973980929241Q769.0248680153604 385.1279513857023 769.0248680153604 378.13805518505114L769.0248680153604 378.13805518505114L769.0248680153604 349.4545976367482Q769.0248680153604 343.93506795079713 770.8119288563037 340.0894939892738Q772.5989896972468 336.26654105105365 775.6302068198593 334.07230179065505Q778.6388029191686 331.87806253025644 782.3034086942673 330.97322159813336Q785.9680144693659 330.0910016893133 789.7004833143739 330.40769601555644L789.7004833143739 330.40769601555644Q792.3245220175309 330.566043178678 795.2426340236279 331.3804000175887Q798.1833670530281 332.19475685649957 801.1919631523375 333.57463927798733Q804.2005592516468 334.97714272277824 806.7341138615916 336.9225507268429Q809.2450474482333 338.8679587309076 810.8737611260549 341.31102924764ZM896.7205445612361 415.5984697749485L896.7205445612361 415.5984697749485L896.7205445612361 323.7344941411484L877.0176332642553 323.7344941411484L877.0176332642553 332.19475685649957L887.6042721700957 332.19475685649957L887.6042721700957 415.4175015885238Q887.6042721700957 419.3309386199563 886.4505999816388 422.6788500688119Q885.3195488164848 426.0041404943644 882.9443413696617 428.53769510430914Q880.5917549461416 431.0712497142539 876.678317914709 432.51899520565087L876.678317914709 432.51899520565087L879.279735594563 439.5315124296051Q885.4778959796064 437.4051362391158 889.3008489178266 434.39654013980635Q893.1238018560468 431.387944040497 894.9334837202931 426.8184973332752Q896.7205445612361 422.27167164935656 896.7205445612361 415.5984697749485ZM898.0099428895116 295.23200477927L898.0099428895116 295.23200477927Q898.0099428895116 292.94728142565907 896.3812292116901 291.4090518410498Q894.7525155338684 289.8482012331374 892.4904132035607 289.8482012331374L892.4904132035607 289.8482012331374Q890.2056898499497 289.8482012331374 888.4864920789158 291.4090518410498Q886.789915331185 292.94728142565907 886.789915331185 295.23200477927L886.789915331185 295.23200477927Q886.789915331185 297.3357599464563 888.4864920789158 298.96447362427784Q890.2056898499497 300.5931873020995 892.4904132035607 300.5931873020995L892.4904132035607 300.5931873020995Q894.7525155338684 300.5931873020995 896.3812292116901 298.96447362427784Q898.0099428895116 297.3357599464563 898.0099428895116 295.23200477927ZM963.9728468412874 348.3235464715942L963.9728468412874 348.3235464715942Q960.2403779962796 346.0388231179834 955.6030682191484 344.0934151139187Q950.9431374187144 342.12538608655086 945.898649222128 340.90385082818466Q940.8541610255417 339.68231556981846 935.470357479409 339.68231556981846L935.470357479409 339.68231556981846Q930.5842164459441 339.68231556981846 926.1052538319346 340.9943349213969Q921.6262912179252 342.30635427297545 918.0521695360388 345.15660320916334Q914.4780478541526 348.0068521453511 912.4421557568755 352.71202499239143Q910.4062636595985 357.4398188627347 910.4062636595985 364.2939889235673L910.4062636595985 364.2939889235673L910.4062636595985 377.798739835505Q910.4062636595985 386.7566650635239 913.2565125957864 392.6155100990211Q916.1067615319741 398.49697615782145 921.0607656353483 401.66391942025234Q926.0373907620254 404.83086268268335 932.8010767296458 405.98453487114034Q939.542141673963 407.1155860362942 947.369015736828 406.9572388731726L947.369015736828 406.9572388731726Q949.8120862535604 406.9572388731726 953.159997702416 406.79889171005107Q956.4852881279686 406.6405445469295 959.9915467399456 406.3917132905957Q963.4978053519227 406.1428820342618 966.5064014512321 405.894050777928Q969.5149975505415 405.6452195215941 971.392542484697 405.4868723584726Q973.2700874188525 405.32852519535106 973.111740255731 405.32852519535106L973.111740255731 405.32852519535106L973.111740255731 358.4125228647671Q973.111740255731 348.3235464715942 971.4830265779093 341.4015133408524Q969.8543129000876 334.4794802101104 966.0087389385644 330.3172119223441Q962.1857860003441 326.1775646578808 955.6709312890576 324.3000197237253Q949.1560765777712 322.42247478956983 939.22544734772 322.42247478956983L939.22544734772 322.42247478956983L938.9087530214769 329.43499201352404Q943.7948940549417 329.43499201352404 948.3417197388604 330.1588647592225Q952.9111664460821 330.90535852822416 956.4174250580593 332.85076653228884Q959.9010626467333 334.79617453635353 961.9369547440103 338.5512644046645Q963.9728468412874 342.30635427297545 963.9728468412874 348.3235464715942ZM963.9728468412874 355.9694523480347L963.9728468412874 355.9694523480347L963.9728468412874 397.8409664820322Q963.9728468412874 397.8409664820322 963.248974095589 397.9088295519414Q962.5251013498904 397.99931364515373 961.0547348351903 398.0897977383661Q959.5843683204902 398.1576608082753 957.4579921300009 398.4064920646091Q955.3542369628146 398.655323320943 952.6623351897483 398.8136704840646Q949.9704334166821 398.97201764718614 946.7130060610388 399.1303648103076L946.7130060610388 399.1303648103076Q938.5694376719306 399.46968015985374 933.2082551491012 398.24814490148754Q927.8244516029686 397.02660964312133 924.8158555036592 394.17636070693356Q921.8072594043498 391.3261117707457 920.5857241459836 386.91501222664544Q919.3641888876174 382.52653370584835 919.3641888876174 376.66768867035114L919.3641888876174 376.66768867035114L919.3641888876174 364.61068324981045Q919.3641888876174 359.06853254055636 920.9024184722267 355.65275802179156Q922.440648056836 352.23698350302675 924.8837185735684 350.51778573199283Q927.3267890903008 348.82120898426194 929.950827793458 348.16519930847267Q932.5522454733119 347.5091896326834 934.6560006404982 347.5091896326834L934.6560006404982 347.5091896326834Q939.8814570235091 347.5091896326834 944.9259452200956 348.64024079783735Q949.9704334166821 349.79391298629434 954.8565744501469 351.73932099035903Q959.7427154836117 353.70735001772687 963.9728468412874 355.9694523480347ZM1082.868945322266 349.6355658231728L1082.868945322266 349.6355658231728L1082.868945322266 405.32852519535106L1091.5101762240415 405.32852519535106L1091.5101762240415 349.2962504736266Q1091.5101762240415 342.78139576234014 1089.88146254622 337.73690756575365Q1088.2527488683986 332.6924193691673 1084.9048374195427 329.2766448504025Q1081.5795469939903 325.83824930833464 1076.602921867313 324.14167256060375Q1071.6489177639392 322.42247478956983 1064.7947477031062 322.42247478956983L1064.7947477031062 322.42247478956983Q1060.2479220191876 322.42247478956983 1055.678475311966 323.5761469780268Q1051.1090286047443 324.7071981431808 1046.8788972470684 326.7430902404577Q1042.648765889393 328.77898233773476 1039.0746442075065 331.5387471807103L1039.0746442075065 331.5387471807103Q1036.9482680170172 328.6206351746132 1033.7813247545864 326.58474307733616Q1030.5917604688525 324.5488509800592 1026.4521132043892 323.4856628848145Q1022.2898449166227 322.42247478956983 1017.0870095569147 322.42247478956983L1017.0870095569147 322.42247478956983Q1013.0152253623606 322.42247478956983 1009.4184826571712 323.327315721693Q1005.8443609752849 324.20953563051296 1002.5869336196416 325.77038623842543Q999.3295062639984 327.30861582303476 996.0720789083551 329.43499201352404L996.0720789083551 329.43499201352404L996.0720789083551 323.89284130426995L986.77483833079 323.89284130426995L986.77483833079 405.32852519535106L996.0720789083551 405.32852519535106L996.0720789083551 336.4248882141752Q999.48785342712 334.4794802101104 1002.4285864565201 333.16746085853197Q1005.3466984626172 331.87806253025644 1008.5362627483512 331.2220528544673Q1011.7032060107821 330.566043178678 1015.458295879093 330.566043178678L1015.458295879093 330.566043178678Q1019.3491118872224 330.566043178678 1022.9458545924119 331.4708841108011Q1026.5199762742982 332.3531040196211 1029.2118780473647 334.56996430332276Q1031.9037798204308 336.76420356372137 1033.5324934982523 340.42880933882Q1035.1612071760742 344.0934151139187 1035.1612071760742 349.6355658231728L1035.1612071760742 349.6355658231728L1035.1612071760742 405.32852519535106L1043.6214698914255 405.32852519535106L1043.6214698914255 349.2962504736266Q1043.6214698914255 345.8804759548618 1043.2142914719698 342.8718798555524Q1042.8071130525145 339.86328375624305 1041.834409050482 337.23924505308594L1041.834409050482 337.23924505308594Q1045.7478460819148 334.79617453635353 1049.4124518570134 333.34842904495656Q1053.077057632112 331.87806253025644 1056.583316244089 331.2220528544673Q1060.066953832763 330.566043178678 1063.1660340252847 330.566043178678L1063.1660340252847 330.566043178678Q1067.079471056717 330.566043178678 1070.5857296686945 331.4708841108011Q1074.0919882806716 332.3531040196211 1076.851753123647 334.56996430332276Q1079.6115179666226 336.76420356372137 1081.240231644444 340.42880933882Q1082.868945322266 344.0934151139187 1082.868945322266 349.6355658231728ZM1113.8145052008767 383.49923770788064L1113.8145052008767 383.49923770788064L1113.8145052008767 373.4102613147079L1163.4902723744362 370.8088436348538L1163.4902723744362 349.6355658231728Q1163.4902723744362 340.4966724087292 1160.006634785762 334.4794802101104Q1156.5003761737848 328.46228801149175 1150.0533845324076 325.36320781896995Q1143.6290139143334 322.26412762644827 1134.8294358494363 322.26412762644827L1134.8294358494363 322.26412762644827Q1126.2108259709635 322.26412762644827 1119.356655910131 325.36320781896995Q1112.525106872601 328.46228801149175 1108.6116698411688 334.63782737323197Q1104.698232809736 340.83598775827545 1104.698232809736 350.11060731253747L1104.698232809736 350.11060731253747L1104.698232809736 383.49923770788064Q1104.698232809736 390.3534077687133 1106.7341249070132 394.90023345263205Q1108.7700170042904 399.46968015985374 1112.525106872601 402.2294450028294Q1116.2575757176091 405.01183086910794 1121.4830321006202 406.1428820342618Q1126.6858674603282 407.27393319941575 1132.8840278453713 407.27393319941575L1132.8840278453713 407.27393319941575Q1139.0595672071117 407.27393319941575 1146.2304315941874 405.2380411021387Q1153.401295981263 403.20214900486167 1159.418488179882 399.6280273229753L1159.418488179882 399.6280273229753L1155.844366497996 392.6155100990211Q1149.827174299377 395.7145902915429 1143.9457082405766 397.59213522569837Q1138.0868632050792 399.46968015985374 1132.0696710064608 399.46968015985374L1132.0696710064608 399.46968015985374Q1128.156233975028 399.46968015985374 1124.8083225261726 398.56483922773066Q1121.4830321006202 397.6826193189106 1119.0399615838878 395.80507438475513Q1116.5968910671554 393.92752945059965 1115.2170086456676 390.9189333512903Q1113.8145052008767 387.9103372519809 1113.8145052008767 383.49923770788064ZM1154.3739999832956 348.4818936347158L1154.3739999832956 348.4818936347158L1154.3739999832956 362.66527524574576L1113.8145052008767 364.4523360866889L1113.8145052008767 350.2689544756589Q1113.8145052008767 343.7540997643724 1116.3480598108213 339.2072740804538Q1118.8816144207663 334.63782737323197 1123.5867872678064 332.2852409497119Q1128.3145811381496 329.9100335028887 1134.6710886863148 329.9100335028887L1134.6710886863148 329.9100335028887Q1140.3715865586905 329.9100335028887 1144.7600650794875 332.19475685649957Q1149.1711646235876 334.4794802101104 1151.7725823034416 338.64174849787685Q1154.3739999832956 342.78139576234014 1154.3739999832956 348.4818936347158ZM1220.1785567719498 333.82347053432125L1220.1785567719498 333.82347053432125L1223.9336466402606 327.6479311725809Q1220.0202096088283 325.2048606558484 1216.265119740517 323.9833253974822Q1212.5326508955095 322.761790139116 1209.0942553534414 322.3546117196606Q1205.6784808346765 321.94743330020526 1202.4210534790332 321.94743330020526L1202.4210534790332 321.94743330020526Q1197.5349124455688 321.94743330020526 1192.807118575225 323.2368316284807Q1188.101945728185 324.5488509800592 1184.2563717666617 327.24075275312543Q1180.4334188284415 329.9100335028887 1178.1486954748307 333.7556074644119Q1175.886593144523 337.5785604026322 1175.886593144523 342.78139576234014L1175.886593144523 342.78139576234014Q1175.886593144523 348.16519930847267 1178.3975267311648 351.98815224669295Q1180.9310813411093 355.8111051849131 1185.0028655356632 358.5934910511917Q1189.0746497302175 361.3532558941672 1194.0286538335913 363.4796320846566Q1199.0052789602687 365.58338725184285 1203.9819040869456 367.55141627921057Q1208.9359081903199 369.4968242832754 1213.0076923848737 371.8494107067954Q1217.079476579428 374.2246181536186 1219.6130311893726 377.3915614160496Q1222.1239647760144 380.58112570178355 1222.1239647760144 384.96960422258076L1222.1239647760144 384.96960422258076Q1222.1239647760144 388.8830412540133 1220.269040865162 391.6428060969888Q1218.3914959310064 394.42519196326737 1215.3828998316972 396.2801158741198Q1212.3516827090848 398.1576608082753 1208.9359081903199 398.97201764718614Q1205.520133671555 399.78637448609686 1202.4210534790332 399.78637448609686L1202.4210534790332 399.78637448609686Q1197.3765652824472 399.78637448609686 1192.8976026684377 398.56483922773066Q1188.4186400544281 397.34330396936446 1184.5052030229958 394.90023345263205Q1180.591765991563 392.45716293589965 1176.8592971465555 388.8830412540133L1176.8592971465555 388.8830412540133L1171.8148089499687 394.2442237768428Q1177.5153068223444 400.75907848812926 1185.6588752114526 404.5141683564402Q1193.8024436005608 408.2692582247512 1202.4210534790332 408.2692582247512L1202.4210534790332 408.2692582247512Q1207.6465098620442 408.2692582247512 1212.6005139654185 406.79889171005107Q1217.5771390920959 405.32852519535106 1221.6489232866497 402.3877921659508Q1225.7207074812036 399.46968015985374 1228.1637779979364 395.0585806157536Q1230.6068485146689 390.6701020949564 1230.6068485146689 384.8112570594592L1230.6068485146689 384.8112570594592Q1230.6068485146689 378.7714438375374 1228.0732939047239 374.6317965730741Q1225.5623603180825 370.46952828530766 1221.4905761235282 367.55141627921057Q1217.4187919289743 364.61068324981045 1212.442166802297 362.41644398941185Q1207.46554167562 360.22220472901336 1202.5794006421547 358.3446597948579Q1197.6932596086904 356.4671148607024 1193.621475414136 354.2728756003038Q1189.5496912195822 352.0786363399052 1187.0387576329404 349.2962504736266Q1184.5052030229958 346.5364856306511 1184.5052030229958 342.464701436097L1184.5052030229958 342.464701436097Q1184.5052030229958 339.0489269173322 1186.2922638639388 336.6058564005998Q1188.101945728185 334.1627858838674 1191.020057734282 332.60193527595493Q1193.9607907636823 331.0637056913457 1197.4670493756594 330.3172119223441Q1200.9506869643333 329.5933391766456 1204.2081143199766 329.5933391766456L1204.2081143199766 329.5933391766456Q1206.9905001862553 329.5933391766456 1209.840749122443 330.0910016893133Q1212.690998058631 330.566043178678 1215.3828998316972 331.4708841108011Q1218.0521805814606 332.3531040196211 1220.1785567719498 333.82347053432125Z " fill="#8000ff" transform="matrix(0.711031280172408,0,0,0.7110312801724079,0,40.69409481232043)"/></g></svg>